<svg xmlns="http://www.w3.org/2000/svg" viewBox="0 0 512 512">
  <rect width="512" height="512" rx="80" fill="#16213e"/>
  <rect x="60" y="60" width="392" height="392" rx="20" fill="#0a0a1a"/>
  <!-- Display area -->
  <rect x="80" y="80" width="352" height="90" rx="8" fill="#0f3460"/>
  <text x="412" y="150" font-family="monospace" font-size="52" fill="#ecf0f1" text-anchor="end">0</text>
  <!-- Buttons row 1 -->
  <rect x="80"  y="195" width="72" height="60" rx="6" fill="#95a5a6"/>
  <rect x="168" y="195" width="72" height="60" rx="6" fill="#95a5a6"/>
  <rect x="256" y="195" width="72" height="60" rx="6" fill="#95a5a6"/>
  <rect x="344" y="195" width="88" height="60" rx="6" fill="#e67e22"/>
  <!-- Buttons row 2 -->
  <rect x="80"  y="270" width="72" height="60" rx="6" fill="#34495e"/>
  <rect x="168" y="270" width="72" height="60" rx="6" fill="#34495e"/>
  <rect x="256" y="270" width="72" height="60" rx="6" fill="#34495e"/>
  <rect x="344" y="270" width="88" height="60" rx="6" fill="#e67e22"/>
  <!-- Buttons row 3 -->
  <rect x="80"  y="345" width="72" height="60" rx="6" fill="#34495e"/>
  <rect x="168" y="345" width="72" height="60" rx="6" fill="#34495e"/>
  <rect x="256" y="345" width="72" height="60" rx="6" fill="#34495e"/>
  <rect x="344" y="345" width="88" height="60" rx="6" fill="#e67e22"/>
  <!-- Buttons row 4: 0 wide + . + = -->
  <rect x="80"  y="420" width="160" height="52" rx="6" fill="#34495e"/>
  <rect x="256" y="420" width="72"  height="52" rx="6" fill="#34495e"/>
  <rect x="344" y="420" width="88"  height="52" rx="6" fill="#e74c3c"/>
</svg>
